<svg width="18" height="18" viewBox="0 0 18 18" fill="none" xmlns="http://www.w3.org/2000/svg">
<path fill-rule="evenodd" clip-rule="evenodd" d="M9 9.75C10.797 9.75 12.4312 10.2705 13.6335 11.004C14.2335 11.37 14.7465 11.802 15.117 12.2715C15.4815 12.7327 15.75 13.2847 15.75 13.875C15.75 14.5088 15.4417 15.0083 14.9977 15.3645C14.5777 15.702 14.0235 15.9255 13.4348 16.0815C12.2513 16.3942 10.6718 16.5 9 16.5C7.32825 16.5 5.74875 16.395 4.56525 16.0815C3.9765 15.9255 3.42225 15.702 3.00225 15.3645C2.5575 15.0075 2.25 14.5088 2.25 13.875C2.25 13.2847 2.5185 12.7328 2.883 12.2708C3.2535 11.802 3.76575 11.3707 4.3665 11.0032C5.56875 10.2712 7.20375 9.75 9 9.75ZM9 11.25C7.48275 11.25 6.11775 11.6925 5.148 12.2842C4.66275 12.5797 4.29675 12.9007 4.0605 13.2007C3.8175 13.5082 3.75 13.7407 3.75 13.875C3.75 13.9665 3.77775 14.0633 3.94125 14.1945C4.128 14.3445 4.45275 14.4997 4.94925 14.631C5.93775 14.8935 7.35825 15 9 15C10.6425 15 12.0622 14.8927 13.05 14.631C13.5472 14.4997 13.872 14.3445 14.0588 14.1945C14.2223 14.0633 14.25 13.9665 14.25 13.875C14.25 13.74 14.1825 13.5082 13.9402 13.2007C13.7032 12.9007 13.3372 12.5797 12.852 12.2842C11.8822 11.6917 10.5173 11.25 9 11.25ZM9 1.5C9.99456 1.5 10.9484 1.89509 11.6517 2.59835C12.3549 3.30161 12.75 4.25544 12.75 5.25C12.75 6.24456 12.3549 7.19839 11.6517 7.90165C10.9484 8.60491 9.99456 9 9 9C8.00544 9 7.05161 8.60491 6.34835 7.90165C5.64509 7.19839 5.25 6.24456 5.25 5.25C5.25 4.25544 5.64509 3.30161 6.34835 2.59835C7.05161 1.89509 8.00544 1.5 9 1.5ZM9 3C8.70453 3 8.41194 3.0582 8.13896 3.17127C7.86598 3.28434 7.61794 3.45008 7.40901 3.65901C7.20008 3.86794 7.03434 4.11598 6.92127 4.38896C6.8082 4.66194 6.75 4.95453 6.75 5.25C6.75 5.54547 6.8082 5.83806 6.92127 6.11104C7.03434 6.38402 7.20008 6.63206 7.40901 6.84099C7.61794 7.04992 7.86598 7.21566 8.13896 7.32873C8.41194 7.4418 8.70453 7.5 9 7.5C9.59674 7.5 10.169 7.26295 10.591 6.84099C11.0129 6.41903 11.25 5.84674 11.25 5.25C11.25 4.65326 11.0129 4.08097 10.591 3.65901C10.169 3.23705 9.59674 3 9 3Z" fill="white"/>
</svg>
