<svg width="18" height="18" viewBox="0 0 18 18" fill="none" xmlns="http://www.w3.org/2000/svg">
<path fill-rule="evenodd" clip-rule="evenodd" d="M3 8.99999C2.99921 7.78103 3.42261 6.59978 4.19758 5.65887C4.97254 4.71797 6.05076 4.07605 7.24729 3.84324C8.44381 3.61043 9.68406 3.80123 10.7553 4.38291C11.8265 4.9646 12.6619 5.90091 13.1182 7.03124C13.1938 7.21431 13.3386 7.36009 13.5212 7.43677C13.7038 7.51345 13.9093 7.5148 14.0928 7.44054C14.2764 7.36628 14.4232 7.22242 14.5011 7.04036C14.579 6.8583 14.5818 6.65282 14.5087 6.46874C14.1618 5.60375 13.6396 4.81994 12.9749 4.16665C12.3103 3.51336 11.5176 3.00473 10.6467 2.67279C9.77587 2.34085 8.84574 2.19278 7.91486 2.2379C6.98399 2.28302 6.07253 2.52035 5.23786 2.93496C4.4032 3.34956 3.6634 3.93247 3.06503 4.64697C2.46667 5.36148 2.02269 6.19212 1.76105 7.08661C1.49941 7.9811 1.42577 8.92006 1.54477 9.8444C1.66377 10.7687 1.97283 11.6584 2.4525 12.4575L1.8675 14.4442C1.82904 14.5746 1.82645 14.7129 1.85998 14.8446C1.89351 14.9764 1.96193 15.0966 2.05804 15.1927C2.15415 15.2888 2.27439 15.3572 2.4061 15.3908C2.53782 15.4243 2.67613 15.4217 2.8065 15.3832L4.794 14.7982C5.59337 15.2763 6.48349 15.5828 7.40775 15.6982C7.60517 15.7229 7.8043 15.6681 7.96134 15.546C8.11838 15.4238 8.22046 15.2443 8.24512 15.0469C8.26979 14.8494 8.21502 14.6503 8.09286 14.4933C7.97071 14.3362 7.79117 14.2342 7.59375 14.2095C6.82483 14.1138 6.08694 13.8478 5.43375 13.431C5.30482 13.3485 5.15975 13.2946 5.00826 13.2729C4.85678 13.2512 4.7024 13.2621 4.5555 13.305L3.6915 13.5592L3.94575 12.6952C4.03575 12.3892 3.981 12.0697 3.81975 11.8177C3.28268 10.9762 2.99818 9.9983 3 8.99999ZM15 12.375C14.9999 11.7925 14.8062 11.2266 14.4492 10.7664C14.0922 10.3062 13.5923 9.97772 13.0281 9.83279C12.464 9.68787 11.8677 9.73469 11.3331 9.96588C10.7985 10.1971 10.3559 10.5995 10.0751 11.1098C9.79436 11.6201 9.69128 12.2093 9.78212 12.7847C9.87297 13.36 10.1526 13.8888 10.5769 14.2877C11.0013 14.6867 11.5463 14.9332 12.1261 14.9884C12.706 15.0436 13.2877 14.9044 13.7797 14.5927C13.9823 14.4639 14.2263 14.417 14.4622 14.4615C14.4175 14.2257 14.4642 13.9817 14.5927 13.779C14.8587 13.359 14.9999 12.8721 15 12.375ZM12.375 8.24999C13.0917 8.24994 13.796 8.4366 14.4186 8.79159C15.0411 9.14659 15.5605 9.65766 15.9254 10.2745C16.2904 10.8912 16.4883 11.5925 16.4998 12.3091C16.5112 13.0256 16.3358 13.7328 15.9907 14.361L16.2802 15.3442C16.3185 15.4742 16.3211 15.612 16.2876 15.7433C16.2542 15.8746 16.186 15.9944 16.0902 16.0902C15.9944 16.186 15.8746 16.2542 15.7433 16.2876C15.612 16.3211 15.4742 16.3185 15.3442 16.2802L14.3617 15.9907C13.8105 16.2935 13.1972 16.4661 12.569 16.4955C11.9407 16.5249 11.3141 16.4102 10.737 16.1602C10.1598 15.9103 9.64749 15.5317 9.23912 15.0534C8.83075 14.575 8.53717 14.0097 8.38081 13.4005C8.22445 12.7913 8.20947 12.1544 8.337 11.5385C8.46454 10.9227 8.73121 10.3441 9.11663 9.84712C9.50205 9.35012 9.99602 8.94783 10.5608 8.67102C11.1255 8.3942 11.7461 8.25019 12.375 8.24999Z" fill="white"/>
</svg>
