<svg width="18" height="18" viewBox="0 0 18 18" fill="none" xmlns="http://www.w3.org/2000/svg">
<path fill-rule="evenodd" clip-rule="evenodd" d="M9 1.5C13.1422 1.5 16.5 4.85775 16.5 9C16.5 13.1422 13.1422 16.5 9 16.5C4.85775 16.5 1.5 13.1422 1.5 9C1.5 4.85775 4.85775 1.5 9 1.5ZM9 3C7.4087 3 5.88258 3.63214 4.75736 4.75736C3.63214 5.88258 3 7.4087 3 9C3 10.5913 3.63214 12.1174 4.75736 13.2426C5.88258 14.3679 7.4087 15 9 15C10.5913 15 12.1174 14.3679 13.2426 13.2426C14.3679 12.1174 15 10.5913 15 9C15 7.4087 14.3679 5.88258 13.2426 4.75736C12.1174 3.63214 10.5913 3 9 3ZM6.723 6.4875C6.73958 6.34952 6.7881 6.21731 6.8647 6.10136C6.9413 5.98541 7.04388 5.88892 7.1643 5.81954C7.28471 5.75016 7.41964 5.70981 7.55837 5.70168C7.6971 5.69356 7.83582 5.7179 7.9635 5.77275L8.20725 5.88L8.53725 6.0315L8.799 6.15825L9.0915 6.30525L9.414 6.4725L9.7605 6.66075L10.131 6.87075L10.3177 6.9795L10.6695 7.191L10.9905 7.392L11.4135 7.668L11.7615 7.9065L12.1027 8.1525L12.165 8.19825C12.6412 8.556 12.645 9.27 12.1658 9.63L11.9535 9.78675L11.6588 9.99375L11.2867 10.245L10.9965 10.4325L10.674 10.635L10.3192 10.8473C10.2577 10.8838 10.1947 10.9205 10.1302 10.9575L9.75675 11.169L9.40725 11.3588L9.08475 11.5268L8.79225 11.6737L8.4135 11.8553L8.1135 11.991L7.962 12.057C7.83437 12.1114 7.69583 12.1354 7.55733 12.127C7.41884 12.1186 7.2842 12.0781 7.16406 12.0087C7.04393 11.9393 6.9416 11.8429 6.86518 11.7271C6.78875 11.6113 6.74033 11.4793 6.72375 11.3415L6.68325 10.9673L6.66075 10.7167L6.62925 10.2675L6.61125 9.9225L6.59775 9.543L6.59025 9.13125V8.697L6.59775 8.286L6.61125 7.9065L6.62925 7.5615L6.66075 7.11225L6.714 6.56475L6.723 6.4875ZM8.136 7.50375L8.11575 7.854L8.1 8.24775L8.091 8.68275V9.14625L8.1 9.58125L8.115 9.975L8.136 10.3253L8.448 10.1678L8.6175 10.0793L8.9835 9.88275L9.381 9.6585L9.7725 9.42675L9.954 9.31575L10.287 9.10575L10.5795 8.9145L10.2855 8.72175L9.9525 8.511L9.5805 8.286C9.38399 8.16974 9.18571 8.05648 8.98575 7.94625L8.61975 7.74975L8.28825 7.5795L8.136 7.50375Z" fill="white"/>
</svg>
