<svg width="18" height="18" viewBox="0 0 18 18" fill="none" xmlns="http://www.w3.org/2000/svg">
<path d="M7.67851 3.62025C7.97403 3.62012 8.26669 3.6782 8.53976 3.79119C8.81284 3.90417 9.06098 4.06985 9.27001 4.27875L14.1338 9.14325C14.5556 9.56519 14.7925 10.1374 14.7925 10.734C14.7925 11.3306 14.5556 11.9028 14.1338 12.3248L10.9515 15.507C10.5296 15.9288 9.95738 16.1658 9.36076 16.1658C8.76414 16.1658 8.19195 15.9288 7.77001 15.507L2.90551 10.6432C2.69661 10.4342 2.53093 10.1861 2.41795 9.913C2.30496 9.63993 2.24688 9.34727 2.24701 9.05175V5.49525C2.24701 4.99797 2.44455 4.52106 2.79618 4.16943C3.14782 3.81779 3.62473 3.62025 4.12201 3.62025H7.67851ZM7.67851 5.12025H4.12201C4.02255 5.12025 3.92717 5.15976 3.85684 5.23009C3.78652 5.30041 3.74701 5.39579 3.74701 5.49525V9.05175C3.74685 9.25054 3.82562 9.44126 3.96601 9.582L8.83051 14.4465C8.97116 14.5871 9.16189 14.6661 9.36076 14.6661C9.55963 14.6661 9.75036 14.5871 9.89101 14.4465L13.0733 11.2643C13.2139 11.1236 13.2929 10.9329 13.2929 10.734C13.2929 10.5351 13.2139 10.3444 13.0733 10.2037L8.20876 5.34C8.06814 5.19934 7.87741 5.12029 7.67851 5.12025ZM5.64826 7.0215C5.85931 6.81055 6.14551 6.69208 6.4439 6.69215C6.59165 6.69219 6.73795 6.72133 6.87443 6.7779C7.01092 6.83447 7.13493 6.91738 7.23938 7.02188C7.34383 7.12637 7.42668 7.25042 7.48319 7.38694C7.5397 7.52346 7.56876 7.66977 7.56873 7.81751C7.56869 7.96526 7.53956 8.11156 7.48299 8.24805C7.42641 8.38454 7.34351 8.50855 7.23901 8.613C7.02796 8.82395 6.74176 8.94242 6.44337 8.94235C6.14498 8.94228 5.85883 8.82367 5.64788 8.61262C5.43694 8.40158 5.31847 8.11538 5.31854 7.81698C5.31857 7.66924 5.34771 7.52294 5.40428 7.38645C5.46086 7.24996 5.54376 7.12595 5.64826 7.0215ZM8.73901 1.5C9.03453 1.49987 9.32719 1.55795 9.60026 1.67094C9.87334 1.78393 10.1215 1.9496 10.3305 2.1585L15.7245 7.55325C15.8611 7.6947 15.9367 7.88415 15.935 8.0808C15.9333 8.27745 15.8544 8.46556 15.7154 8.60461C15.5763 8.74367 15.3882 8.82255 15.1916 8.82426C14.9949 8.82596 14.8055 8.75037 14.664 8.61375L9.27001 3.2175C9.12884 3.07748 8.93784 2.99925 8.73901 3H5.25001C5.0511 3 4.86033 2.92098 4.71968 2.78033C4.57903 2.63968 4.50001 2.44891 4.50001 2.25C4.50001 2.05109 4.57903 1.86032 4.71968 1.71967C4.86033 1.57902 5.0511 1.5 5.25001 1.5H8.73901Z" fill="white"/>
</svg>
