<svg width="18" height="18" viewBox="0 0 18 18" fill="none" xmlns="http://www.w3.org/2000/svg">
<path fill-rule="evenodd" clip-rule="evenodd" d="M12 2.25C12.1989 2.25 12.3897 2.32902 12.5303 2.46967C12.671 2.61032 12.75 2.80109 12.75 3V3.75H14.25C14.6478 3.75 15.0294 3.90804 15.3107 4.18934C15.592 4.47064 15.75 4.85218 15.75 5.25V14.25C15.75 14.6478 15.592 15.0294 15.3107 15.3107C15.0294 15.592 14.6478 15.75 14.25 15.75H3.75C3.35218 15.75 2.97064 15.592 2.68934 15.3107C2.40804 15.0294 2.25 14.6478 2.25 14.25V5.25C2.25 4.85218 2.40804 4.47064 2.68934 4.18934C2.97064 3.90804 3.35218 3.75 3.75 3.75H5.25V3C5.25 2.80109 5.32902 2.61032 5.46967 2.46967C5.61032 2.32902 5.80109 2.25 6 2.25C6.19891 2.25 6.38968 2.32902 6.53033 2.46967C6.67098 2.61032 6.75 2.80109 6.75 3V3.75H11.25V3C11.25 2.80109 11.329 2.61032 11.4697 2.46967C11.6103 2.32902 11.8011 2.25 12 2.25ZM6 5.25H3.75V6.75H14.25V5.25H12H6ZM3.75 8.25V14.25H14.25V8.25H3.75ZM5.25 9.75C5.25 9.55109 5.32902 9.36032 5.46967 9.21967C5.61032 9.07902 5.80109 9 6 9H6.0075C6.20641 9 6.39718 9.07902 6.53783 9.21967C6.67848 9.36032 6.7575 9.55109 6.7575 9.75C6.7575 9.94891 6.67848 10.1397 6.53783 10.2803C6.39718 10.421 6.20641 10.5 6.0075 10.5H6C5.80109 10.5 5.61032 10.421 5.46967 10.2803C5.32902 10.1397 5.25 9.94891 5.25 9.75ZM6 11.25C5.80109 11.25 5.61032 11.329 5.46967 11.4697C5.32902 11.6103 5.25 11.8011 5.25 12C5.25 12.1989 5.32902 12.3897 5.46967 12.5303C5.61032 12.671 5.80109 12.75 6 12.75H6.0075C6.20641 12.75 6.39718 12.671 6.53783 12.5303C6.67848 12.3897 6.7575 12.1989 6.7575 12C6.7575 11.8011 6.67848 11.6103 6.53783 11.4697C6.39718 11.329 6.20641 11.25 6.0075 11.25H6ZM8.25 9.75C8.25 9.55109 8.32902 9.36032 8.46967 9.21967C8.61032 9.07902 8.80109 9 9 9H9.0075C9.20641 9 9.39718 9.07902 9.53783 9.21967C9.67848 9.36032 9.7575 9.55109 9.7575 9.75C9.7575 9.94891 9.67848 10.1397 9.53783 10.2803C9.39718 10.421 9.20641 10.5 9.0075 10.5H9C8.80109 10.5 8.61032 10.421 8.46967 10.2803C8.32902 10.1397 8.25 9.94891 8.25 9.75ZM9 11.25C8.80109 11.25 8.61032 11.329 8.46967 11.4697C8.32902 11.6103 8.25 11.8011 8.25 12C8.25 12.1989 8.32902 12.3897 8.46967 12.5303C8.61032 12.671 8.80109 12.75 9 12.75H9.0075C9.20641 12.75 9.39718 12.671 9.53783 12.5303C9.67848 12.3897 9.7575 12.1989 9.7575 12C9.7575 11.8011 9.67848 11.6103 9.53783 11.4697C9.39718 11.329 9.20641 11.25 9.0075 11.25H9ZM11.25 9.75C11.25 9.55109 11.329 9.36032 11.4697 9.21967C11.6103 9.07902 11.8011 9 12 9H12.0075C12.2064 9 12.3972 9.07902 12.5378 9.21967C12.6785 9.36032 12.7575 9.55109 12.7575 9.75C12.7575 9.94891 12.6785 10.1397 12.5378 10.2803C12.3972 10.421 12.2064 10.5 12.0075 10.5H12C11.8011 10.5 11.6103 10.421 11.4697 10.2803C11.329 10.1397 11.25 9.94891 11.25 9.75ZM12 11.25C11.8011 11.25 11.6103 11.329 11.4697 11.4697C11.329 11.6103 11.25 11.8011 11.25 12C11.25 12.1989 11.329 12.3897 11.4697 12.5303C11.6103 12.671 11.8011 12.75 12 12.75H12.0075C12.2064 12.75 12.3972 12.671 12.5378 12.5303C12.6785 12.3897 12.7575 12.1989 12.7575 12C12.7575 11.8011 12.6785 11.6103 12.5378 11.4697C12.3972 11.329 12.2064 11.25 12.0075 11.25H12Z" fill="white"/>
</svg>
