<svg width="18" height="18" viewBox="0 0 18 18" fill="none" xmlns="http://www.w3.org/2000/svg">
<path d="M18 13.5C18 14.0304 17.7893 14.5391 17.4142 14.9142C17.0391 15.2893 16.5304 15.5 16 15.5H2C1.46957 15.5 0.960859 15.2893 0.585786 14.9142C0.210714 14.5391 0 14.0304 0 13.5V4.5C0 3.96957 0.210714 3.46086 0.585786 3.08579C0.960859 2.71071 1.46957 2.5 2 2.5H16C16.5304 2.5 17.0391 2.71071 17.4142 3.08579C17.7893 3.46086 18 3.96957 18 4.5V13.5Z" fill="#4B92DB"/>
<path d="M5.27702 7.76501C5.35152 7.61251 5.47352 7.46701 5.61702 7.35851C5.93702 7.11701 6.28702 6.80451 6.29202 6.39351C6.18602 6.68901 5.86402 6.81151 5.64952 7.01351C5.53602 7.12051 5.44952 7.24901 5.39852 7.38251L5.39102 7.37651C5.41752 7.25801 5.46802 7.15101 5.50202 7.03651C5.59552 6.72351 5.57852 6.34901 5.88352 6.14001C5.72652 6.18001 5.59502 6.28151 5.47752 6.41201C5.23152 6.68451 5.25302 7.08701 5.28552 7.44601C5.29552 7.55701 5.28952 7.65151 5.27702 7.76501ZM6.88552 11.6305C6.53052 11.344 6.47702 10.9145 6.31852 10.5375C6.22002 10.3035 6.06002 10.093 5.88902 9.88851C6.07702 10.264 5.99602 10.7485 6.23952 11.1025C6.31602 11.2135 6.42252 11.3195 6.52052 11.4085L6.51602 11.413C6.42562 11.3668 6.34145 11.3094 6.26552 11.242C5.83902 10.8875 5.19752 10.842 4.94202 10.264C5.01102 10.6885 5.34802 11.0645 5.71202 11.3025C6.05802 11.529 6.50102 11.5035 6.88552 11.6305Z" fill="white"/>
<path d="M5.2845 10.4395C5.525 10.629 5.812 10.777 6.031 10.9435C5.988 10.8345 5.9175 10.734 5.889 10.6185C5.76 10.0985 5.832 9.497 5.609 9.016C5.6505 9.2895 5.542 9.531 5.517 9.791C5.4965 10.005 5.534 10.2125 5.617 10.3925C5.6415 10.4455 5.686 10.4935 5.6985 10.548C5.6185 10.476 5.5615 10.3835 5.5065 10.294C5.248 9.8755 4.7055 9.603 4.6685 9.094C4.65 9.3205 4.67 9.561 4.7455 9.762C4.8505 10.0415 5.052 10.2565 5.2845 10.4395ZM5.6495 6.874C5.82 6.714 6.018 6.5955 6.1625 6.4045C6.336 6.175 6.487 5.9195 6.713 5.7215C6.405 5.8415 6.075 5.964 5.875 6.28C5.7585 6.4645 5.7415 6.683 5.6495 6.874ZM7.8015 11.8595C7.866 11.8435 7.9445 11.8485 8.0045 11.827C7.7555 11.7765 7.515 11.701 7.322 11.5245C7.045 11.271 6.7995 11.001 6.503 10.804C6.735 11.1165 6.801 11.57 7.225 11.73C7.3 11.7585 7.386 11.763 7.451 11.804C7.3695 11.8165 7.298 11.7915 7.222 11.775C6.6755 11.6585 6.008 11.8085 5.5985 11.3425C5.754 11.647 6.074 11.8875 6.381 11.989C6.8575 12.1455 7.354 11.9705 7.8015 11.8595Z" fill="white"/>
<path d="M5.36202 9.92052L5.38502 9.93902C5.36052 9.77102 5.34802 9.59002 5.39552 9.42952C5.46802 9.17302 5.55852 8.92352 5.60652 8.65752C5.64352 8.45102 5.68602 8.21902 5.66202 8.01852C5.63452 8.12652 5.60602 8.23302 5.54652 8.32502C5.32152 8.67352 5.09002 9.08252 5.24802 9.52502C5.24452 9.53002 5.23902 9.53602 5.23352 9.53252C5.17002 9.38652 5.15602 9.22002 5.11502 9.06302C5.00602 8.64752 4.68602 8.30002 4.78002 7.81952C4.73052 7.92402 4.71052 8.04152 4.68452 8.15502C4.62902 8.44902 4.68452 8.76052 4.76452 9.03052C4.86352 9.36902 5.19452 9.61102 5.36202 9.92052Z" fill="white"/>
<path d="M5.77847 7.68302C5.85297 7.53202 5.89947 7.36152 5.91997 7.19502C5.89099 7.26766 5.84684 7.33329 5.79047 7.38752C5.54197 7.62302 5.24897 7.85552 5.19247 8.18902C5.18447 8.23652 5.18047 8.28552 5.16647 8.33202C5.15547 8.33652 5.15547 8.32452 5.15097 8.32152L5.18197 7.90752C5.21197 7.50402 4.99947 7.05502 5.23297 6.69952C5.22497 6.69802 5.22047 6.70402 5.21447 6.70752C5.00197 6.97852 4.86047 7.27502 4.86047 7.63852C4.86047 8.08752 5.11897 8.40102 5.15097 8.82302C5.21747 8.38302 5.58697 8.07052 5.77847 7.68302ZM12.886 9.06352C12.845 9.22002 12.831 9.38652 12.7675 9.53302C12.7615 9.53602 12.7565 9.53002 12.753 9.52552C12.9105 9.08302 12.6795 8.67402 12.4545 8.32552C12.3955 8.23402 12.367 8.12702 12.339 8.01902C12.3145 8.21952 12.3575 8.45102 12.3945 8.65802C12.442 8.92402 12.533 9.17352 12.6055 9.43002C12.653 9.59052 12.6405 9.77152 12.616 9.93952L12.639 9.92102C12.8065 9.61152 13.1375 9.36952 13.2375 9.03202C13.3175 8.76202 13.3725 8.45002 13.3175 8.15652C13.2915 8.04302 13.2715 7.92502 13.222 7.82102C13.315 8.30052 12.995 8.64752 12.886 9.06352ZM11.735 11.242C11.659 11.3094 11.5749 11.3668 11.4845 11.413L11.48 11.4085C11.5785 11.3195 11.685 11.2135 11.761 11.1025C12.005 10.7485 11.9235 10.264 12.1115 9.88852C11.9405 10.093 11.7805 10.3035 11.682 10.5375C11.5235 10.9145 11.47 11.344 11.115 11.6305C11.499 11.504 11.9425 11.529 12.288 11.3025C12.6515 11.0645 12.9885 10.6885 13.058 10.264C12.803 10.842 12.1615 10.887 11.735 11.242Z" fill="white"/>
<path d="M10.5495 11.8035C10.6145 11.7625 10.7005 11.7575 10.7755 11.7295C11.1995 11.5695 11.2655 11.116 11.4975 10.8035C11.201 11.0005 10.9555 11.2705 10.6785 11.524C10.4855 11.7005 10.2455 11.776 9.99597 11.8265C10.056 11.8485 10.134 11.8435 10.199 11.859C10.6465 11.97 11.143 12.1455 11.6195 11.988C11.927 11.8865 12.247 11.6465 12.402 11.3415C11.9925 11.8075 11.325 11.6575 10.7785 11.774C10.7025 11.791 10.631 11.816 10.5495 11.8035ZM12.302 10.548C12.3145 10.494 12.359 10.4455 12.3835 10.3925C12.4694 10.2044 12.5039 9.99682 12.4835 9.791C12.4585 9.531 12.35 9.2895 12.3915 9.016C12.1685 9.497 12.2405 10.0985 12.1115 10.6185C12.083 10.7335 12.013 10.8345 11.9695 10.9435C12.1885 10.777 12.4755 10.629 12.716 10.4395C12.9485 10.2565 13.15 10.0415 13.255 9.762C13.3305 9.5605 13.35 9.3205 13.3315 9.094C13.2945 9.6035 12.7525 9.8755 12.4935 10.294C12.439 10.3835 12.382 10.476 12.302 10.548ZM12.8185 7.908L12.8495 8.322C12.845 8.325 12.845 8.3375 12.834 8.3325C12.82 8.2865 12.816 8.2375 12.808 8.1895C12.7515 7.856 12.4585 7.6235 12.21 7.388C12.153 7.3343 12.1087 7.26852 12.0805 7.1955C12.101 7.362 12.1475 7.532 12.222 7.6835C12.4135 8.071 12.783 8.3835 12.849 8.8235C12.881 8.4015 13.1395 8.088 13.1395 7.639C13.1395 7.2755 12.998 6.979 12.7855 6.708C12.7795 6.705 12.775 6.699 12.767 6.7C13.0015 7.0555 12.7885 7.5045 12.8185 7.908Z" fill="white"/>
<path d="M12.499 7.037C12.533 7.1515 12.583 7.2585 12.61 7.377L12.6025 7.383C12.5477 7.24267 12.4619 7.11652 12.3515 7.014C12.1375 6.812 11.815 6.6895 11.709 6.394C11.714 6.805 12.064 7.117 12.384 7.359C12.5275 7.4675 12.6495 7.613 12.724 7.7655C12.71 7.65976 12.7073 7.55282 12.716 7.4465C12.749 7.0875 12.77 6.685 12.524 6.4125C12.4065 6.282 12.2745 6.1805 12.118 6.1405C12.422 6.3495 12.4055 6.724 12.499 7.037ZM10.6125 12.17C10.2445 12.0175 9.86999 11.8145 9.45049 11.8145C9.29799 11.8145 9.14699 11.8405 8.99999 11.8845C8.8541 11.8391 8.70229 11.8155 8.54949 11.8145C8.12999 11.8145 7.75549 12.0175 7.38749 12.17C7.05449 12.308 6.61299 12.281 6.31799 12.0775C6.46399 12.2605 6.65899 12.3735 6.86099 12.45C7.23549 12.5995 7.67299 12.485 7.99199 12.281C8.22149 12.134 8.41849 11.926 8.69199 11.926C8.74099 11.926 8.79049 11.9335 8.83949 11.944C8.45499 12.0975 8.10499 12.3665 7.83199 12.627C7.88199 12.6845 7.94699 12.738 8.00799 12.787C8.31199 12.473 8.65649 12.135 8.99949 11.9945C9.34299 12.135 9.68749 12.473 9.99099 12.787C10.052 12.7375 10.117 12.684 10.167 12.627C9.89449 12.3665 9.54399 12.098 9.15949 11.944C9.20899 11.9335 9.25799 11.926 9.30699 11.926C9.58049 11.926 9.77749 12.134 10.007 12.281C10.326 12.485 10.763 12.5995 11.138 12.45C11.3395 12.3735 11.535 12.261 11.681 12.0775C11.3875 12.281 10.9455 12.308 10.6125 12.17Z" fill="white"/>
<path d="M12.351 6.87401C12.259 6.68301 12.242 6.46451 12.125 6.27951C11.925 5.96351 11.595 5.84101 11.287 5.72101C11.513 5.91951 11.664 6.17451 11.8375 6.40401C11.9825 6.59551 12.1805 6.71401 12.351 6.87401ZM6.28298 7.15651L6.24848 7.13801C6.04063 7.55874 5.93267 8.02175 5.93298 8.49101C5.93298 8.78801 5.97548 9.07801 6.05648 9.35551L6.12898 9.33751C6.0519 9.07464 6.01119 8.80244 6.00798 8.52851H6.56098C6.56448 8.76001 6.59998 8.98651 6.66548 9.20251L6.73698 9.18451C6.67259 8.97165 6.63809 8.75087 6.63448 8.52851H7.13548C7.13698 8.60251 7.14598 8.67501 7.15548 8.74751C7.13164 8.75098 7.10808 8.75616 7.08498 8.76301L7.06948 8.81351C7.03548 8.82001 7.01398 8.87651 7.01398 8.87651C6.98598 8.88601 6.96448 8.92051 6.97398 8.93001C6.98298 8.93951 6.95848 8.94251 6.95848 8.94251V9.01151L6.94298 9.03351L6.94598 9.10901C6.96448 9.10901 6.96148 9.14351 6.96148 9.14351C6.93048 9.14651 6.93648 9.18751 6.93648 9.18751L6.87148 9.20951L6.85898 9.22851L6.77848 9.22551L6.75898 9.24551C6.75248 9.22551 6.74298 9.20651 6.73698 9.18601L6.66548 9.20402C6.66782 9.21135 6.67048 9.21851 6.67348 9.22551H6.58098L6.57498 9.21001L6.54398 9.20351L6.54098 9.16901L6.49448 9.17201L6.48498 9.19101L6.43548 9.19401C6.43848 9.22551 6.38598 9.27251 6.37998 9.26001C6.37348 9.24751 6.33948 9.21301 6.35498 9.20651C6.37048 9.20001 6.41048 9.19401 6.41048 9.19401V9.17201L6.29598 9.16901L6.28348 9.18801L6.23698 9.19101V9.24151L6.21548 9.24801C6.19998 9.25751 6.21848 9.29201 6.21848 9.29201C6.23998 9.31401 6.21548 9.34851 6.21548 9.34851C6.19698 9.36751 6.23098 9.40201 6.23098 9.40201C6.25598 9.40801 6.21548 9.42701 6.21548 9.42701C6.22148 9.45851 6.23998 9.46802 6.23998 9.46802C6.22148 9.49952 6.25248 9.51502 6.25248 9.51502L6.25548 9.56851L6.27698 9.58102V9.61552L6.28948 9.63751H6.33898L6.33598 9.55901C6.29248 9.50851 6.37298 9.49602 6.37648 9.51502C6.37948 9.53402 6.41348 9.54351 6.41348 9.54351C6.41948 9.59051 6.47248 9.61901 6.48748 9.57201C6.50298 9.52501 6.51548 9.55301 6.52448 9.57501C6.54453 9.60243 6.56731 9.62772 6.59248 9.65052H6.63898L6.64498 9.69451C6.69748 9.69151 6.71298 9.69752 6.73448 9.77002C6.73986 9.79042 6.74994 9.80928 6.76392 9.82508C6.7779 9.84089 6.79539 9.85319 6.81498 9.86101L6.85848 9.85801C6.85848 9.82051 6.90198 9.86452 6.90198 9.88302C6.90198 9.90152 6.98548 9.97401 6.98548 9.97401L7.06898 9.99301L7.09298 10.0125C7.14248 10.0745 7.19248 10.1355 7.24848 10.193L6.85748 10.584C6.51606 10.2357 6.26569 9.80859 6.12848 9.34051L6.05598 9.35851C6.19848 9.84651 6.46148 10.2935 6.83098 10.663C7.08098 10.913 7.36698 11.1145 7.67698 11.263L7.71348 11.198C7.4165 11.0562 7.14487 10.8665 6.90948 10.6365L7.30048 10.2455C7.50348 10.4425 7.73548 10.6 7.98598 10.7145L8.02248 10.65C7.77457 10.5378 7.54803 10.3833 7.35298 10.1935L7.42198 10.1245C7.42648 10.132 7.43248 10.135 7.43398 10.1475C7.43998 10.1945 7.46198 10.185 7.46198 10.185L7.63848 10.182L7.70048 10.1285L7.85848 10.1255C7.93898 10.1225 7.88948 10.0125 7.87398 10.0125C7.86348 10.004 7.86348 9.98551 7.86598 9.96601C7.99248 10.0635 8.12548 10.15 8.27048 10.212L8.30698 10.1475C8.1123 10.0647 7.93374 9.94829 7.77948 9.80351L7.76098 9.78651L8.15048 9.39701C8.27598 9.51551 8.42248 9.60501 8.58098 9.66151L8.61798 9.59601C8.46334 9.54265 8.32185 9.45691 8.20298 9.34451L8.55748 8.98951C8.66548 9.08601 8.79998 9.14101 8.94398 9.15301L8.94348 9.15701C8.94348 9.15701 8.93198 9.18551 8.94598 9.19001C8.95998 9.19451 8.95498 9.19702 8.96198 9.20402L8.95498 9.22051C8.94348 9.20501 8.93648 9.23251 8.94348 9.23951C8.95048 9.24651 8.92748 9.24201 8.92748 9.25151C8.92748 9.26101 8.92048 9.26551 8.92748 9.27051C8.93448 9.27551 8.92498 9.27751 8.91598 9.28451C8.90648 9.29151 8.95548 9.29401 8.95548 9.29401C8.95548 9.29401 8.94648 9.27501 8.95798 9.27501L8.96298 9.27601V9.30001C8.95748 9.29901 8.95648 9.30102 8.94998 9.29952V9.32151L8.92498 9.32451L8.94648 9.34951L8.96248 9.35151V9.40301L8.96198 9.40601C8.96198 9.44701 8.85998 9.41851 8.85048 9.40901L8.84748 9.46551L8.82898 9.46851L8.83198 9.50601L8.82898 9.55951L8.86298 9.55302V9.57501L8.94648 9.57801L8.96248 9.56101V9.61902L8.96198 9.62201L8.90648 9.62851L8.88348 9.64051L8.88148 9.64002L8.87298 9.62252H8.84848L8.84098 9.63251C8.76598 9.62201 8.68948 9.61602 8.61848 9.59152L8.58148 9.65701C8.62698 9.67351 8.67398 9.68401 8.72148 9.69501C8.71398 9.70151 8.70098 9.70901 8.70298 9.71351C8.70898 9.72901 8.67848 9.74501 8.67848 9.74501L8.65048 9.75452L8.63198 9.78301L8.59498 9.79551L8.58898 9.86151L8.57048 9.87401V9.90251L8.54898 9.90851V9.92401L8.51798 9.92701L8.53648 9.97401L8.56148 9.98651C8.60498 9.99251 8.58598 10.046 8.58598 10.046L8.61048 10.049L8.62298 10.0835L8.64748 10.1335C8.65698 10.171 8.68448 10.162 8.69698 10.1585C8.70948 10.155 8.72148 10.196 8.72148 10.196L8.84498 10.199C8.84498 10.199 8.83898 10.2115 8.86048 10.218C8.87248 10.2215 8.92048 10.2245 8.96298 10.2255V10.281C8.73761 10.2765 8.51508 10.2297 8.30698 10.143L8.27048 10.2075C8.48967 10.3008 8.72481 10.3509 8.96298 10.355V10.856C8.63868 10.8516 8.3188 10.7801 8.02348 10.646L7.98698 10.7105C8.29395 10.8499 8.62638 10.9245 8.96348 10.9295V11.4825C8.53123 11.4775 8.10517 11.379 7.71448 11.194L7.67798 11.259C8.08548 11.454 8.53498 11.5575 9.00048 11.5575C9.48058 11.5583 9.95409 11.4458 10.3825 11.229L10.3475 11.161C9.95248 11.361 9.50798 11.4765 9.03748 11.4825V10.9295C9.25803 10.9244 9.47694 10.8901 9.68848 10.8275L9.74848 10.846L9.76398 10.8965L9.78898 10.8935L9.80748 10.878L9.88148 10.875L9.91848 10.8405L9.95848 10.8345L10.2825 10.559C10.4295 10.4675 10.5715 10.366 10.6985 10.2425L11.0885 10.6325C10.8698 10.8459 10.6197 11.0246 10.347 11.1625L10.382 11.2305C10.9823 10.9267 11.4667 10.4346 11.761 9.82951L11.7605 9.82902C11.9628 9.41206 12.0675 8.95447 12.0665 8.49101C12.0665 8.09001 11.9895 7.70151 11.844 7.34101C11.6898 6.95942 11.4601 6.61296 11.1685 6.32251C10.8769 6.02971 10.5289 5.79922 10.1455 5.64501V5.64551C9.78146 5.49866 9.39251 5.42345 8.99998 5.42401C8.50698 5.42401 8.04098 5.54151 7.62798 5.74951L7.66148 5.81401C8.06574 5.61147 8.51085 5.50375 8.96298 5.49901V6.05201C8.6003 6.05734 8.2434 6.14378 7.91848 6.30501L7.95198 6.36951C8.26657 6.21387 8.61203 6.13066 8.96298 6.12601V6.62701C8.69308 6.632 8.42753 6.696 8.18498 6.81451L8.21898 6.87901C8.45148 6.76682 8.70539 6.70594 8.96348 6.70051V7.25351C8.78948 7.25851 8.62498 7.30001 8.47598 7.36951L8.50998 7.43451C8.65098 7.36901 8.80448 7.33201 8.96348 7.32751V7.82901C8.9067 7.83451 8.85089 7.84745 8.79748 7.86751H8.77448L8.77148 7.83301L8.78698 7.82351L8.76198 7.81401L8.74348 7.83901L8.73748 7.86751L8.70648 7.87401V7.88951H8.68498V7.91701C8.64098 7.94151 8.59598 7.96401 8.55848 7.99701L8.20348 7.64201C8.29378 7.55675 8.39728 7.48668 8.50998 7.43451L8.47598 7.36951C8.35706 7.42552 8.24772 7.49994 8.15198 7.59001L7.76048 7.19851C7.89798 7.06651 8.05248 6.95951 8.21948 6.87851L8.18548 6.81401C8.01009 6.89921 7.84928 7.0116 7.70898 7.14701L7.35448 6.79251C7.53063 6.62108 7.73259 6.47835 7.95298 6.36951L7.91948 6.30501C7.69269 6.41762 7.48472 6.5647 7.30298 6.74101L6.91098 6.34901C7.13237 6.13283 7.38587 5.95219 7.66248 5.81351L7.62898 5.74901C7.03063 6.04984 6.54641 6.53721 6.24948 7.13751L6.28298 7.15651ZM7.42648 8.52801L7.42848 8.54551L7.38198 8.59601L7.38798 8.64601L7.35998 8.65551L7.35398 8.67751L7.34148 8.74351L7.37248 8.74651C7.38798 8.74001 7.38498 8.78751 7.37248 8.79351C7.35998 8.80001 7.32598 8.81251 7.34448 8.82501C7.36298 8.83751 7.29498 8.83451 7.29498 8.81551C7.29498 8.79651 7.25798 8.78101 7.24848 8.78751C7.24348 8.79101 7.23698 8.78301 7.23198 8.77401C7.21853 8.69266 7.21085 8.61045 7.20898 8.52801H7.42648ZM7.22298 10.0465H7.23048C7.24598 9.99301 7.31998 10.0495 7.32648 10.0685C7.32898 10.0755 7.33948 10.083 7.34898 10.0905L7.30148 10.138C7.27348 10.1085 7.24948 10.0765 7.22298 10.0465ZM7.70748 9.73101C7.68048 9.70301 7.66248 9.66901 7.63748 9.63951C7.64298 9.62401 7.65098 9.61001 7.65098 9.61001C7.69098 9.58501 7.64148 9.54401 7.64148 9.54401C7.64748 9.50601 7.61998 9.46251 7.61998 9.46251C7.56448 9.42501 7.57998 9.35251 7.57998 9.35251V9.30251C7.53348 9.25851 7.59848 9.25201 7.59848 9.25201C7.61998 9.21451 7.58298 9.18601 7.58298 9.18601L7.57998 9.14502L7.53048 9.13851L7.52448 8.99101L7.41298 8.83101C7.39148 8.82451 7.40698 8.78701 7.40698 8.78701C7.43498 8.77151 7.40098 8.73351 7.40098 8.73351L7.39798 8.66451L7.46298 8.65801L7.47848 8.63301H7.50948L7.50648 8.55151C7.51398 8.53201 7.52648 8.52751 7.53748 8.52751H7.54148C7.55048 8.52901 7.55898 8.53251 7.55898 8.53251L7.60248 8.53551L7.60698 8.52751H7.75448L7.76698 8.60801L7.72698 8.64251C7.69298 8.66151 7.69298 8.70551 7.72998 8.71451C7.75448 8.71751 7.74548 8.77751 7.70848 8.73651C7.65298 8.73651 7.73948 8.78701 7.71448 8.77401C7.76998 8.80251 7.75798 8.74901 7.75798 8.74901L7.78648 8.72651C7.79815 8.78818 7.81448 8.84851 7.83548 8.90751C7.89248 9.06651 7.98148 9.21351 8.10048 9.33951L7.70748 9.73101ZM7.59848 8.44801C7.56148 8.42601 7.57998 8.34451 7.57998 8.34451C7.63898 8.25651 7.70698 8.30701 7.70698 8.30701L7.75048 8.30401C7.76548 8.31401 7.77298 8.32651 7.77698 8.33951C7.77365 8.36185 7.77082 8.38435 7.76848 8.40701L7.75648 8.42951C7.75298 8.43451 7.75348 8.44502 7.75248 8.45402H7.63248L7.63298 8.45151L7.59848 8.44801ZM8.28548 8.57401L8.29798 8.55501L8.30298 8.52801H8.33798C8.33898 8.54651 8.34748 8.56251 8.34998 8.58051L8.34748 8.59251L8.32598 8.59901L8.31998 8.58651L8.31098 8.62101H8.25548L8.25248 8.58351L8.28548 8.57401ZM8.15098 9.28801C8.04276 9.17356 7.9592 9.0381 7.90548 8.89001C7.88227 8.82454 7.86503 8.7571 7.85398 8.68851C7.87998 8.69851 7.90798 8.73951 7.90798 8.74701C7.90798 8.75651 8.03148 8.75001 8.03148 8.75001C8.06548 8.77201 8.07798 8.82851 8.07798 8.82851C8.11198 8.78451 8.18298 8.82551 8.13048 8.85051C8.17998 8.88201 8.17998 8.91001 8.17998 8.91001C8.22048 8.89751 8.22048 8.92901 8.22048 8.93851C8.22048 8.94801 8.23298 8.89152 8.23298 8.89152C8.18648 8.85702 8.29498 8.84451 8.26398 8.90701L8.24498 8.93501L8.27598 8.96001L8.27898 9.03201C8.34698 9.02551 8.32848 8.94101 8.32848 8.94101L8.35948 8.93501C8.35948 8.90651 8.38098 8.92251 8.38098 8.92251C8.36398 8.83751 8.40398 8.80901 8.42198 8.80051C8.44648 8.84651 8.46998 8.89351 8.50548 8.93301L8.15098 9.28801ZM8.46898 8.73851C8.47298 8.71951 8.47398 8.70251 8.47398 8.70251C8.44598 8.69001 8.46148 8.64601 8.49248 8.68351C8.52348 8.72101 8.47398 8.60801 8.47398 8.60801L8.44948 8.58601L8.42848 8.58401C8.42348 8.55251 8.40998 8.52301 8.40998 8.49051C8.40998 8.47551 8.41748 8.46251 8.41848 8.44801C8.42448 8.44651 8.43098 8.44751 8.43098 8.44751L8.44948 8.46301L8.47748 8.48501L8.48048 8.50401L8.46198 8.51351L8.45898 8.53851L8.46848 8.57301H8.49298C8.50248 8.52251 8.56748 8.52251 8.58598 8.55401L8.60448 8.51001C8.56098 8.48801 8.60348 8.45351 8.61598 8.46901C8.62848 8.48451 8.65698 8.42801 8.65698 8.42801C8.65698 8.42801 8.67848 8.45651 8.65698 8.41851C8.63548 8.38101 8.67248 8.36202 8.67248 8.36202C8.66648 8.32452 8.71248 8.33051 8.71248 8.33051L8.71548 8.28051L8.67198 8.27751C8.66298 8.32151 8.62548 8.28401 8.64398 8.27451C8.66248 8.26501 8.68098 8.24601 8.68098 8.24601V8.21451L8.69948 8.20801L8.70248 8.17651H8.74898L8.78898 8.15751L8.79848 8.14201L8.84198 8.13901L8.90398 8.08252L8.89798 8.05751C8.86098 8.05751 8.89798 8.02901 8.89798 8.02901L8.90398 7.98201H8.86998L8.86498 7.92601C8.90748 7.91601 8.94898 7.90101 8.99398 7.90101L8.99998 7.97651L8.96598 7.96501H8.94448L8.93548 7.94601L8.91698 7.94301V8.01201L8.93548 8.02751L8.95098 8.04301L8.98198 8.04601L8.98798 8.08351L9.06548 8.08651L9.07498 8.10201L9.12148 8.10501L9.21098 8.19601L9.20498 8.22451L9.18948 8.23401C9.19548 8.25601 9.14948 8.24351 9.14948 8.24351V8.26251L9.17098 8.26551L9.19248 8.27801L9.22348 8.22451C9.25748 8.20251 9.27298 8.23401 9.27598 8.25301C9.27898 8.27201 9.26048 8.26851 9.26048 8.26851V8.31251L9.27898 8.31901C9.30998 8.35651 9.26648 8.37851 9.26648 8.37851L9.25698 8.41001C9.24748 8.43851 9.21348 8.43201 9.21348 8.43201L9.20098 8.45101L9.16398 8.46051L9.23748 8.47001C9.24448 8.44501 9.26298 8.43851 9.27248 8.45101C9.28198 8.46351 9.28198 8.48551 9.28198 8.48551L9.30048 8.48851L9.29748 8.52301L9.31598 8.52951V8.63001L9.33748 8.65501C9.37448 8.63951 9.37448 8.66451 9.35598 8.67701C9.33748 8.68951 9.34998 8.74601 9.34998 8.74601L9.33448 8.76151V8.78651L9.31548 8.80001V8.83451C9.28448 8.81901 9.24748 8.82501 9.23798 8.83451C9.20998 8.81551 9.15148 8.82201 9.15148 8.83751C9.16998 8.86251 9.12998 8.86901 9.12998 8.86901L9.10848 8.89401C9.12398 8.92551 9.09298 8.92851 9.09298 8.92851V8.98801L9.05598 9.02251L9.05798 9.06901C9.03798 9.07101 9.02098 9.08051 9.00048 9.08051C8.85598 9.08051 8.72248 9.02351 8.61498 8.92901L8.61698 8.92801C8.62126 8.92071 8.62704 8.9144 8.63393 8.90948C8.64083 8.90457 8.64868 8.90117 8.65698 8.89951L8.66648 8.87751L8.74998 8.88051C8.75598 8.84601 8.79648 8.85851 8.79648 8.87401C8.79648 8.88951 8.82748 8.87701 8.82748 8.87701L8.84898 8.84251H8.88298L8.88598 8.80501L8.90148 8.79551V8.73901C8.95098 8.72351 8.94498 8.67601 8.94498 8.67601L8.95748 8.66051L8.95148 8.63851C8.92648 8.62901 8.93898 8.60701 8.95448 8.61351C8.96998 8.62001 8.93298 8.58501 8.93298 8.58501C8.91448 8.60051 8.89898 8.56601 8.89898 8.56601H8.85248V8.52201L8.84648 8.48101L8.79998 8.45901L8.76598 8.49051L8.75998 8.53451V8.56251L8.72898 8.56901L8.72298 8.65351L8.69848 8.66301L8.70148 8.69451L8.66748 8.70402L8.63348 8.71351L8.62748 8.75451L8.60298 8.77002L8.59048 8.80751L8.57598 8.89301C8.53087 8.84874 8.49456 8.79631 8.46898 8.73851ZM10.1135 7.09801L10.128 7.10951L10.1725 7.14501V7.16401C10.195 7.15851 10.227 7.18651 10.231 7.20801L9.84898 7.59001C9.74056 7.48786 9.61475 7.4059 9.47748 7.34801C9.33759 7.2901 9.18833 7.25808 9.03698 7.25351V6.70051C9.26098 6.70501 9.47798 6.75051 9.67948 6.83301C9.83598 6.89751 9.97948 6.99101 10.1135 7.09801ZM10.4575 7.08551C10.5015 7.11051 10.537 7.16551 10.5315 7.17651C10.5255 7.18901 10.5685 7.18601 10.5685 7.18601C10.5745 7.12951 10.6275 7.14851 10.6305 7.16701C10.6335 7.18601 10.643 7.22651 10.643 7.22651L10.6585 7.25451L10.68 7.27651L10.714 7.27351L10.7235 7.29251L10.7635 7.29901C10.7635 7.29901 10.7975 7.33651 10.8005 7.34601C10.8035 7.35551 10.85 7.35251 10.8625 7.35551C10.875 7.35851 10.8935 7.36801 10.8965 7.38401C10.8995 7.39951 10.918 7.42501 10.918 7.42501C10.918 7.42501 10.955 7.43451 10.958 7.44701C10.9635 7.46095 10.9697 7.47463 10.9765 7.48801L11.0075 7.51301L11.0105 7.54151L11.0445 7.54451L11.054 7.58201L11.1095 7.57901L11.1405 7.55701C11.1485 7.55251 11.1535 7.54751 11.1605 7.54301C11.172 7.56901 11.189 7.59201 11.199 7.61801C11.3035 7.88101 11.3605 8.16302 11.365 8.45402H10.864C10.8603 8.37003 10.8512 8.28636 10.837 8.20351C10.842 8.18601 10.846 8.16901 10.84 8.16301C10.831 8.15351 10.8495 8.10951 10.8495 8.10951C10.8495 8.10951 10.862 8.08451 10.8495 8.05901C10.837 8.03401 10.8525 8.00551 10.862 7.99301L10.8375 7.98051L10.813 7.97751L10.7875 7.98201L10.772 7.92901L10.776 7.92101L10.7915 7.92401V7.90501L10.763 7.89701L10.756 7.87351L10.751 7.79501L10.7295 7.77951L10.7355 7.75451L10.711 7.74501L10.7235 7.70401L10.702 7.66001H10.6605C10.647 7.63351 10.635 7.60601 10.62 7.58001C10.62 7.57551 10.6215 7.57001 10.637 7.56551C10.6449 7.56283 10.6531 7.56115 10.6615 7.56051L10.6585 7.52801L10.6305 7.50901L10.621 7.47151C10.621 7.47151 10.587 7.47801 10.59 7.49651C10.5905 7.50001 10.583 7.50051 10.5805 7.50301C10.561 7.47151 10.5355 7.44401 10.514 7.41351C10.515 7.40851 10.5165 7.40368 10.5185 7.39901C10.5302 7.37768 10.525 7.36401 10.503 7.35801C10.4815 7.35151 10.4815 7.35151 10.475 7.32651C10.469 7.30151 10.444 7.29501 10.444 7.29501L10.4345 7.25751L10.4055 7.27551C10.394 7.26201 10.385 7.24701 10.373 7.23401L10.3855 7.19451C10.3725 7.19201 10.369 7.18351 10.3655 7.17551L10.4575 7.08551ZM10.3575 7.33351L10.355 7.33701C10.355 7.36601 10.3665 7.36451 10.3795 7.36151L10.4055 7.39501C10.4075 7.40835 10.4143 7.41718 10.426 7.42151C10.476 7.48751 10.521 7.55635 10.561 7.62801C10.5577 7.63235 10.556 7.63485 10.556 7.63551L10.5065 7.64201V7.69201L10.4815 7.70151L10.4845 7.73301L10.5185 7.73001C10.5185 7.73001 10.5185 7.76751 10.528 7.75201C10.5375 7.73651 10.6145 7.75501 10.6085 7.79301C10.606 7.80851 10.686 7.84951 10.6765 7.89951C10.685 7.90101 10.6845 7.90651 10.6895 7.91051C10.7042 7.95385 10.717 7.99818 10.728 8.04351L10.726 8.04751L10.7305 8.05251C10.7415 8.09501 10.753 8.13701 10.7605 8.18051C10.7575 8.21201 10.7505 8.24201 10.735 8.25151C10.698 8.27351 10.738 8.26101 10.738 8.26101L10.732 8.33001C10.7415 8.36151 10.7565 8.34551 10.766 8.33001C10.7693 8.32535 10.7725 8.32185 10.7755 8.31951C10.78 8.36501 10.789 8.40901 10.79 8.45501H10.416L10.4225 8.44651L10.438 8.40251L10.4905 8.38701L10.4965 8.34601L10.4685 8.34301C10.4685 8.34301 10.4995 8.28651 10.515 8.28651C10.5305 8.28651 10.6325 8.28651 10.642 8.28001C10.6515 8.27351 10.67 8.22351 10.67 8.21401C10.67 8.20451 10.695 8.20151 10.704 8.19851C10.713 8.19551 10.735 8.17051 10.741 8.15751C10.747 8.14501 10.7255 8.06652 10.713 8.07902C10.7005 8.09152 10.673 8.09801 10.673 8.09801L10.6635 8.13251L10.648 8.14502C10.648 8.14502 10.651 8.15451 10.648 8.17651C10.645 8.19851 10.617 8.21101 10.617 8.21101L10.6045 8.22651C10.6045 8.22651 10.53 8.23051 10.521 8.22651C10.493 8.21401 10.512 8.17651 10.5305 8.17951C10.549 8.18251 10.5275 8.12601 10.5275 8.12601L10.5525 8.12301C10.5525 8.12301 10.5555 8.06651 10.565 8.06651C10.5745 8.06651 10.562 8.04751 10.5495 8.03851C10.537 8.02951 10.5215 7.99751 10.509 8.00101C10.4965 8.00401 10.447 8.00101 10.447 8.00101L10.4375 8.02002L10.4035 8.02651C10.4035 8.02651 10.4065 8.05101 10.4005 8.05801C10.382 8.08001 10.311 8.12701 10.3415 8.04851L10.3505 8.02951V8.00101L10.295 7.99801C10.295 7.99801 10.267 7.98851 10.267 7.97601C10.267 7.96351 10.264 7.94801 10.264 7.94801L10.199 7.87601L10.1215 7.86651L10.1155 7.85101L10.069 7.84451C10.063 7.84151 10.059 7.84501 10.053 7.84301C10.0325 7.81001 10.0055 7.78151 9.98148 7.75001L9.97598 7.72801C9.97348 7.71701 9.94098 7.67551 9.92248 7.67301C9.91398 7.66351 9.90848 7.65251 9.89948 7.64351L10.2835 7.25951C10.294 7.27001 10.2975 7.27651 10.3135 7.28801C10.316 7.28951 10.3175 7.28801 10.32 7.28901C10.3345 7.30201 10.345 7.31851 10.3575 7.33351ZM10.6375 9.21501C10.5533 9.40417 10.4371 9.57737 10.294 9.72702C10.288 9.66352 10.2745 9.59401 10.2745 9.59401L10.2495 9.58151L10.2555 9.50601H10.2215L10.166 9.57851L10.16 9.59852L10.1285 9.56702L10.1445 9.55051L10.1415 9.51301L10.163 9.49402V9.46251L10.1815 9.45602L10.1845 9.38701L10.2 9.38401V9.23351L10.1535 9.18951C10.1505 9.20501 10.101 9.20501 10.101 9.20501C10.101 9.20501 10.0885 9.22701 10.0795 9.22701C10.0705 9.22701 10.092 9.25551 10.0855 9.27401C10.0795 9.29301 10.0545 9.29301 10.0545 9.29301L10.008 9.30551L9.99548 9.32101H9.94598L9.94098 9.28801L9.94898 9.27801L9.99548 9.26501L10.0265 9.24951L10.042 9.21801C10.045 9.18651 10.082 9.19001 10.082 9.19001C10.082 9.19001 10.153 9.13051 10.156 9.10201C10.159 9.07351 10.184 8.99501 10.227 8.99501H10.3075C10.3385 8.98251 10.329 8.94151 10.329 8.94151L10.369 8.93501L10.375 8.95701C10.375 8.95701 10.4305 8.96352 10.437 8.95402C10.4435 8.94452 10.4555 8.92251 10.471 8.93201C10.4865 8.94151 10.536 8.91001 10.536 8.91001C10.539 8.88801 10.6165 8.89751 10.6165 8.89751L10.626 8.86951C10.626 8.86951 10.5735 8.79751 10.564 8.79751C10.5545 8.79751 10.505 8.75351 10.499 8.76901C10.4495 8.75651 10.4525 8.68751 10.4525 8.68751L10.434 8.64351C10.434 8.61851 10.3875 8.56501 10.3785 8.57151C10.359 8.55701 10.3555 8.54201 10.3565 8.52851H10.789C10.7854 8.76524 10.7339 8.99879 10.6375 9.21501ZM9.23798 9.12951L9.25348 9.13601L9.22548 9.15801L9.20098 9.18651L9.16998 9.17701L9.13298 9.17401L9.12048 9.15201L9.09898 9.14901L9.09598 9.19301L9.08048 9.21201L9.04348 9.25001C9.08248 9.25001 9.05648 9.27101 9.03748 9.28001V9.15451C9.07548 9.15251 9.10948 9.13801 9.14598 9.13001L9.16098 9.14301H9.18898L9.19148 9.11951C9.20698 9.11501 9.22348 9.11451 9.23848 9.10901C9.23548 9.11751 9.23798 9.12951 9.23798 9.12951ZM9.79448 7.74851C9.79848 7.74901 9.80348 7.75151 9.80748 7.75151C9.82598 7.75151 9.86648 7.74501 9.86648 7.74501L9.89298 7.75101C9.90798 7.76935 9.92215 7.78785 9.93548 7.80651L9.90348 7.80151L9.87898 7.79851L9.83248 7.79551C9.78598 7.82701 9.77698 7.86451 9.77698 7.86451C9.75448 7.90701 9.70698 7.85801 9.71398 7.82951L9.79448 7.74851ZM9.69298 9.50951L9.77348 9.55051C9.78298 9.56301 9.82298 9.56002 9.82298 9.56002L9.83548 9.57551C9.83548 9.57551 9.86048 9.57251 9.87598 9.59101C9.89148 9.61001 9.97198 9.59401 9.97198 9.59401L9.99348 9.61301L10.0275 9.62551L10.085 9.62751L10.12 9.66252C10.0633 9.68175 10.0025 9.6852 9.94398 9.67251C9.93448 9.66301 9.86998 9.63502 9.86998 9.63502C9.86998 9.63502 9.82048 9.59402 9.81098 9.60702C9.80148 9.62002 9.75848 9.59151 9.75848 9.60051C9.75848 9.60951 9.71848 9.57851 9.71848 9.57851L9.65648 9.55652L9.70298 9.54701L9.69298 9.50951ZM9.70248 9.14101C9.70398 9.13751 9.70698 9.13451 9.70198 9.12951C9.69848 9.12551 9.69198 9.12601 9.68698 9.12551L9.66148 9.10001C9.65998 9.08051 9.66398 9.05401 9.66198 9.04451C9.65898 9.03201 9.71448 9.01301 9.70548 9.04151C9.69648 9.07001 9.70548 9.08252 9.70548 9.08252C9.74548 9.04501 9.77948 9.08551 9.77648 9.09501C9.77348 9.10451 9.79798 9.11401 9.81348 9.10451C9.82898 9.09501 9.84748 9.13301 9.84148 9.15151C9.83548 9.17051 9.77948 9.16701 9.77648 9.14851C9.77348 9.12951 9.76398 9.13601 9.75798 9.14551C9.75248 9.15401 9.72948 9.15851 9.71398 9.15251L9.70248 9.14101ZM9.96848 7.95201C9.93748 7.95201 9.93148 7.92701 9.93148 7.92701C9.93148 7.92701 9.90698 7.91751 9.90698 7.93001C9.90698 7.94251 9.89748 7.96751 9.90698 7.98001C9.91598 7.99251 9.89448 8.01151 9.88548 8.00201C9.87648 7.99251 9.85148 7.96451 9.85748 7.95501C9.86348 7.94551 9.81398 7.88601 9.86348 7.87651C9.91298 7.86701 9.86048 7.83901 9.87898 7.83251L9.90348 7.82001H9.92798L9.93898 7.81101C9.95298 7.83051 9.96998 7.84801 9.98298 7.86801C9.98148 7.87501 9.97298 7.87751 9.97448 7.88601C9.98398 7.93351 9.99898 7.95201 9.96848 7.95201ZM9.23248 9.03251C9.21498 9.04001 9.19448 9.03951 9.17598 9.04551V8.98551L9.20698 8.95101C9.23998 8.93951 9.23448 9.00901 9.23248 9.03251ZM9.03748 10.2115C9.05348 10.194 9.11398 10.192 9.14248 10.213C9.17648 10.238 9.22298 10.2225 9.22298 10.2225L9.24898 10.254C9.17848 10.264 9.11048 10.2805 9.03748 10.282V10.2115ZM9.45048 7.41701C9.57698 7.47001 9.69448 7.54601 9.79698 7.64251L9.77548 7.66401C9.76698 7.65351 9.73348 7.64701 9.73348 7.63551C9.73348 7.62301 9.70248 7.60701 9.70548 7.62601C9.70848 7.64501 9.68398 7.65451 9.67748 7.64801C9.67148 7.64151 9.65298 7.66701 9.65298 7.66701C9.65298 7.67651 9.64698 7.68901 9.66548 7.69201C9.68398 7.69501 9.71798 7.67951 9.72098 7.69851C9.72198 7.70485 9.72332 7.71035 9.72498 7.71501L9.60348 7.83651C9.58598 7.83751 9.56948 7.83701 9.56948 7.83701C9.55998 7.86551 9.51698 7.83401 9.52948 7.81501C9.54198 7.79601 9.54198 7.78351 9.54198 7.78351L9.52648 7.78051L9.50798 7.81501C9.46448 7.81501 9.45248 7.84001 9.46148 7.85601C9.47098 7.87151 9.44898 7.85301 9.44298 7.87501C9.43698 7.89701 9.44598 7.89701 9.46448 7.90651C9.48298 7.91601 9.45498 7.91601 9.46748 7.93151C9.47648 7.94301 9.49148 7.94151 9.49448 7.94601L9.48248 7.95801C9.45998 7.96901 9.42998 7.96601 9.42998 7.96601C9.42898 7.97451 9.41848 7.97501 9.41048 7.97801C9.37987 7.95441 9.34706 7.93381 9.31248 7.91651L9.30948 7.91251H9.30598C9.29048 7.90401 9.27698 7.89101 9.26098 7.88401C9.27048 7.87751 9.28348 7.87351 9.29048 7.85301C9.29946 7.82332 9.30565 7.79286 9.30898 7.76201C9.30898 7.76201 9.25948 7.75901 9.25648 7.77451C9.25348 7.79001 9.22248 7.79951 9.22248 7.79951C9.22248 7.79951 9.19748 7.80901 9.20698 7.82151C9.21648 7.83401 9.18848 7.84051 9.18848 7.84051C9.18848 7.84051 9.19098 7.85501 9.18648 7.86451C9.13748 7.85001 9.08898 7.83351 9.03698 7.83051V7.32901C9.18098 7.33201 9.32048 7.36251 9.45048 7.41701ZM9.06798 9.45001L9.13898 9.43451C9.14498 9.40301 9.17598 9.44101 9.17598 9.44101C9.20698 9.43801 9.21298 9.46001 9.21298 9.46001L9.25348 9.46652C9.28748 9.47602 9.26698 9.47951 9.26898 9.49151C9.27198 9.51051 9.28748 9.50401 9.28748 9.50401L9.29348 9.46302L9.31198 9.46601L9.29348 9.44402L9.25948 9.42851L9.22248 9.41301C9.19798 9.37851 9.22848 9.38451 9.25348 9.38801H9.29348C9.29348 9.38801 9.33998 9.45052 9.33998 9.46652C9.33998 9.48202 9.36148 9.48552 9.36148 9.48552L9.38948 9.48251L9.39898 9.50452H9.42698L9.43648 9.52352H9.49198L9.49498 9.49501L9.44248 9.48552L9.43948 9.45402L9.40248 9.44451C9.38998 9.39101 9.41148 9.37551 9.42698 9.40051L9.44548 9.40351L9.43948 9.35651L9.46098 9.35001L9.45498 9.28401L9.43648 9.27801V9.25501L9.51398 9.25801C9.50798 9.21701 9.51698 9.19851 9.51698 9.19851H9.53848L9.54148 9.21401L9.63598 9.22301L9.64048 9.22351C9.67748 9.24551 9.65898 9.27401 9.64648 9.28001C9.63398 9.28651 9.61248 9.28651 9.61248 9.28651L9.60648 9.29901L9.52598 9.30501L9.51998 9.33651C9.47998 9.33001 9.46448 9.37401 9.47348 9.39601C9.48248 9.41801 9.47348 9.43702 9.47348 9.43702L9.50748 9.45252L9.55098 9.44001C9.55698 9.40851 9.58498 9.40201 9.60998 9.38351C9.63248 9.36651 9.66298 9.40751 9.65998 9.43451C9.60998 9.46951 9.56498 9.51101 9.50998 9.53801C9.42798 9.57801 9.33948 9.60551 9.24798 9.62551L9.21348 9.61601L9.21048 9.56902C9.20448 9.53752 9.14548 9.53751 9.14848 9.55951C9.15148 9.58151 9.03798 9.56902 9.03748 9.56902V9.48251L9.06798 9.45001ZM9.03698 10.356C9.12298 10.3545 9.20498 10.336 9.28848 10.323L9.29948 10.3475L9.35198 10.363L9.38898 10.3725L9.40148 10.426L9.42948 10.429L9.43898 10.4635C9.47298 10.4885 9.42948 10.542 9.42948 10.542V10.611L9.45448 10.6235L9.45148 10.6485L9.49198 10.689L9.53848 10.692L9.61398 10.7725C9.42948 10.8225 9.23698 10.852 9.03748 10.8555L9.03698 10.356ZM10.2715 10.4785V10.455C10.327 10.414 10.3305 10.342 10.2775 10.3355C10.2375 10.3305 10.256 10.2885 10.293 10.282L10.3145 10.2725V10.244L10.3855 10.178V10.1275L10.231 9.99851C10.197 9.98601 10.197 9.94252 10.211 9.90202C10.2375 9.87902 10.2665 9.85951 10.2925 9.83501L10.51 10.0525C10.5015 10.069 10.494 10.085 10.4975 10.0955L10.5255 10.108L10.5285 10.1615C10.5495 10.183 10.5955 10.1815 10.633 10.175L10.646 10.188C10.5325 10.2995 10.405 10.393 10.2715 10.4785ZM10.698 10.1365L10.6845 10.123L10.68 10.0435L10.6645 10.028L10.6615 9.94951C10.674 9.90851 10.6025 9.84901 10.5965 9.86151C10.5905 9.87401 10.55 9.86451 10.55 9.87701C10.55 9.88951 10.5255 9.95251 10.5375 9.97451V9.97651L10.3445 9.78351C10.67 9.44558 10.8557 8.99712 10.8645 8.52801H11.365C11.3601 8.86129 11.2845 9.18973 11.143 9.49151C11.031 9.72944 10.8807 9.94735 10.698 10.1365ZM11.694 9.79201C11.5532 10.0826 11.3665 10.3485 11.141 10.5795L10.751 10.1895C11.1849 9.7442 11.4312 9.14923 11.439 8.52751H11.992C11.9878 8.96592 11.886 9.3979 11.694 9.79201ZM11.776 7.37001C11.9135 7.71051 11.988 8.07652 11.9925 8.45402H11.4395C11.4349 8.15765 11.3767 7.86457 11.2675 7.58901C11.253 7.55301 11.2305 7.52151 11.2145 7.48601C11.218 7.46901 11.225 7.43551 11.2525 7.44401C11.2835 7.45351 11.262 7.37501 11.262 7.37501C11.262 7.37501 11.2185 7.34351 11.2215 7.32801C11.2245 7.31251 11.178 7.28101 11.1815 7.26851C11.185 7.25601 11.1415 7.23101 11.1445 7.21851C11.1475 7.20601 11.123 7.17151 11.123 7.17151L11.0765 7.12751L11.0705 7.09901L11.0335 7.09601L10.9595 7.00501L10.9625 6.98001L10.941 6.97701V6.94251L10.9195 6.93001L10.8855 6.92701L10.816 6.85001L10.81 6.81551H10.776L10.781 6.76201L11.1425 6.40051C11.4146 6.67947 11.6298 7.00877 11.776 7.37001ZM9.03698 6.05201V5.49901C9.40787 5.50334 9.77474 5.57641 10.119 5.71451C10.4808 5.86083 10.8107 6.07586 11.09 6.34851L10.7605 6.67801C10.7485 6.68101 10.7355 6.68451 10.7265 6.68051C10.705 6.67101 10.7355 6.64901 10.7355 6.64901V6.62401L10.717 6.60501C10.717 6.60501 10.6645 6.61151 10.6615 6.60201C10.6585 6.59251 10.649 6.55151 10.649 6.55151L10.646 6.49801L10.6245 6.48851L10.6215 6.46951L10.5875 6.47251V6.43501L10.569 6.42851L10.55 6.42001L10.547 6.38251L10.479 6.37951L10.4575 6.34801L10.433 6.31051L10.3555 6.30401L10.337 6.28501L10.306 6.27851L10.2845 6.26901L10.275 6.28451L10.216 6.28751L10.213 6.30651C10.1905 6.31801 10.121 6.31451 10.082 6.31551C10.0265 6.28801 9.97448 6.25251 9.91698 6.22951L9.88998 6.29851C9.94048 6.31901 9.98648 6.35051 10.0355 6.37451C10.033 6.37851 10.0315 6.38551 10.0275 6.38551C10.012 6.38551 10.018 6.42651 10.018 6.42651C10.018 6.42651 10.0585 6.42651 10.0705 6.42951C10.083 6.43251 10.083 6.46401 10.083 6.46401C10.1295 6.46101 10.148 6.52351 10.142 6.53951C10.136 6.55501 10.1605 6.55501 10.1605 6.55501C10.1605 6.55501 10.1605 6.60501 10.1545 6.61801C10.1485 6.63101 10.195 6.64001 10.207 6.65901C10.2195 6.67801 10.201 6.74051 10.1915 6.74401C10.182 6.74701 10.216 6.75651 10.213 6.77251C10.21 6.78801 10.2225 6.77251 10.2255 6.79751L10.235 6.87601L10.2785 6.87901C10.2845 6.83801 10.3645 6.83651 10.3775 6.84151C10.43 6.86051 10.4705 6.94201 10.4705 6.96101C10.4705 6.98001 10.4365 6.98301 10.4365 6.98301L10.438 7.00351L10.3275 7.11401C10.3175 7.10801 10.3065 7.10201 10.3005 7.10551C10.285 7.11501 10.291 7.03951 10.291 7.03951C10.291 7.03951 10.319 7.02051 10.3315 7.03001C10.344 7.03951 10.2265 6.87301 10.2015 6.88851C10.177 6.90401 10.121 6.87301 10.124 6.84451C10.127 6.81601 10.0125 6.72201 10.0125 6.72201C10.0125 6.72201 9.97548 6.69701 9.96898 6.71601C9.96248 6.73501 9.95048 6.74751 9.96898 6.75701C9.98748 6.76651 9.98448 6.74151 10.006 6.76351C10.0275 6.78551 10.068 6.81351 10.0525 6.83251C10.0436 6.84374 10.0319 6.85237 10.0185 6.85751L10.04 6.88251H10.074L10.08 6.93601C10.08 6.93601 10.117 6.95501 10.1265 6.97701C10.134 6.99501 10.1315 7.00501 10.1265 7.01601C10.0581 6.96396 9.98647 6.91636 9.91198 6.87351C9.91348 6.86551 9.91748 6.85751 9.91598 6.85151C9.90998 6.82951 9.94098 6.82001 9.95598 6.84501L9.98698 6.84201L9.99298 6.81351L9.94998 6.77801H9.91598C9.91598 6.77801 9.91298 6.80301 9.89148 6.79351C9.86998 6.78401 9.88198 6.78701 9.86348 6.78401C9.84498 6.78101 9.85098 6.82501 9.85398 6.83751L9.85298 6.84101C9.80398 6.81551 9.75748 6.78501 9.70648 6.76451C9.49383 6.67733 9.26679 6.63053 9.03698 6.62651V6.34801C9.05498 6.34735 9.06532 6.34301 9.06798 6.33501C9.07098 6.32251 9.07398 6.31951 9.09248 6.31601C9.11098 6.31251 9.08948 6.27501 9.07098 6.27851C9.05498 6.28101 9.04298 6.27151 9.03698 6.26001V6.12601C9.32941 6.12997 9.61853 6.18847 9.88948 6.29851L9.91698 6.22951C9.63724 6.11671 9.33858 6.05654 9.03698 6.05201ZM8.45398 7.99701L8.42448 7.99601C8.41198 8.02451 8.38098 7.99301 8.38098 7.99301C8.37498 7.97401 8.33148 7.99301 8.33148 7.99301C8.33148 8.02751 8.27248 7.97751 8.27248 7.97751L8.16398 7.89901C8.10198 7.84251 8.00948 7.91451 8.00648 7.93051C8.00798 7.95251 7.99048 7.95451 7.97248 7.95151C8.02098 7.85951 8.07748 7.77201 8.15048 7.69451L8.45398 7.99701ZM8.09898 7.64251C8.01877 7.73002 7.95142 7.82851 7.89898 7.93501C7.88448 7.93451 7.86848 7.93501 7.86448 7.94601C7.85548 7.97101 7.81498 7.96501 7.81498 7.96501L7.80898 7.97751L7.77798 7.98401L7.77198 8.00301L7.73498 8.00951L7.82798 8.00651C7.85298 8.00351 7.81848 8.06001 7.80348 8.05651L7.75998 8.05951L7.74448 8.07501H7.70448L7.68498 8.10001L7.62648 8.09701C7.62648 8.09701 7.59248 8.12551 7.59548 8.13451C7.59848 8.14401 7.58948 8.17201 7.57998 8.17201C7.57048 8.17201 7.55198 8.20051 7.55848 8.20951C7.56448 8.21901 7.53998 8.25051 7.53998 8.25051L7.53398 8.28201L7.51548 8.28851V8.37351L7.47848 8.39851V8.43601L7.46148 8.45451H7.20998C7.21873 8.00505 7.39676 7.57543 7.70848 7.25151L8.09898 7.64251ZM7.65598 7.19951C7.33055 7.53712 7.14465 7.98519 7.13548 8.45402H6.63448C6.64238 7.85211 6.88094 7.27619 7.30098 6.84501L7.65598 7.19951ZM6.85798 6.40101L7.24998 6.79301C7.06658 6.98181 6.9148 7.19893 6.80048 7.43601C6.64679 7.75362 6.56502 8.1012 6.56098 8.45402H6.00798C6.01605 7.68569 6.32057 6.95017 6.85798 6.40101Z" fill="white"/>
<path d="M6.55302 9.96151L6.58702 9.99301L6.59952 9.97101L6.57752 9.92401L6.55602 9.90801L6.54052 9.86401L6.49402 9.84251L6.51602 9.89901L6.52802 9.92701L6.55302 9.96151ZM7.62952 8.84051C7.63252 8.87501 7.65752 8.81851 7.65752 8.81851V8.60501L7.60202 8.59851L7.60502 8.62051H7.62052C7.64502 8.66451 7.62352 8.77101 7.62352 8.77101C7.62352 8.77101 7.58652 8.77401 7.58002 8.75551C7.57402 8.73651 7.55852 8.79651 7.57052 8.80601C7.58302 8.81551 7.62652 8.80601 7.62952 8.84051Z" fill="white"/>
<path d="M7.6015 8.8595V8.935L7.651 9.001L7.6695 8.957L7.676 8.9285L7.654 8.919L7.6575 8.872L7.676 8.869L7.679 8.847L7.6325 8.8785L7.6015 8.8595ZM8.579 8.7215L8.5855 8.69L8.604 8.6805L8.607 8.649L8.6195 8.627L8.638 8.605L8.6445 8.58L8.675 8.5615L8.7125 8.555L8.728 8.536L8.734 8.4985L8.7365 8.4705L8.7495 8.4515L8.7865 8.4355V8.376H8.768L8.765 8.354L8.731 8.351L8.7245 8.3665H8.7095L8.706 8.3915H8.7245L8.728 8.4105L8.7155 8.423L8.7095 8.439L8.6845 8.445L8.629 8.4985L8.6255 8.5235L8.6105 8.5455L8.592 8.5925L8.5265 8.5955L8.5145 8.6525L8.5235 8.6995L8.579 8.7215ZM8.8235 8.9255L8.7955 8.9285L8.7985 8.9725L8.817 8.988L8.851 8.9975C8.851 8.9975 8.8975 8.985 8.9005 8.9475L8.8295 8.9445L8.8235 8.9255ZM9.068 8.7465C9.0745 8.774 9.074 8.7025 9.0865 8.7055C9.099 8.7085 9.0895 8.6615 9.0895 8.6615L9.034 8.702C9.062 8.706 9.065 8.734 9.068 8.7465ZM9.2875 8.6835C9.241 8.652 9.244 8.6115 9.232 8.583C9.2265 8.571 9.2135 8.561 9.204 8.586V8.627C9.204 8.627 9.2475 8.696 9.2625 8.7055C9.2785 8.715 9.3035 8.6945 9.2875 8.6835ZM10.68 8.778C10.6675 8.7405 10.5925 8.7725 10.606 8.7905C10.6245 8.8155 10.6555 8.803 10.668 8.806C10.68 8.8095 10.6925 8.8155 10.68 8.778ZM10.779 7.7325C10.779 7.742 10.7855 7.789 10.7855 7.789C10.7855 7.789 10.807 7.7985 10.81 7.811C10.813 7.8235 10.81 7.8485 10.8195 7.852C10.8285 7.855 10.8475 7.8675 10.841 7.88C10.835 7.8925 10.835 7.9175 10.835 7.9175L10.8475 7.946L10.872 7.9615C10.872 7.9615 10.8815 7.886 10.866 7.883C10.8505 7.88 10.857 7.836 10.857 7.836C10.857 7.836 10.8725 7.7765 10.8475 7.7765C10.8225 7.7765 10.8415 7.745 10.826 7.7355C10.8105 7.726 10.82 7.682 10.8135 7.6695C10.8075 7.657 10.8075 7.641 10.792 7.632C10.7765 7.6225 10.795 7.6665 10.786 7.673C10.777 7.6795 10.7705 7.692 10.761 7.7015C10.751 7.7105 10.779 7.723 10.779 7.7325ZM10.646 7.437C10.655 7.4495 10.674 7.459 10.674 7.4715C10.674 7.484 10.668 7.4935 10.6865 7.4965C10.705 7.4995 10.7175 7.4935 10.7235 7.509C10.7293 7.52623 10.7304 7.54473 10.7265 7.5625C10.7235 7.575 10.7295 7.594 10.745 7.594C10.7605 7.594 10.7635 7.597 10.7635 7.6065C10.7635 7.616 10.782 7.572 10.782 7.572C10.7705 7.55998 10.761 7.54613 10.754 7.531C10.754 7.531 10.7385 7.487 10.7385 7.481C10.7385 7.475 10.717 7.4685 10.7075 7.4655C10.698 7.4625 10.6825 7.434 10.6825 7.434L10.646 7.437ZM10.612 7.368C10.6245 7.368 10.6335 7.3745 10.646 7.3805C10.6582 7.38769 10.6688 7.39741 10.677 7.409L10.708 7.3995C10.708 7.3995 10.711 7.368 10.6985 7.3775C10.686 7.387 10.677 7.3555 10.6645 7.3585C10.652 7.3615 10.646 7.346 10.6335 7.3305C10.621 7.315 10.624 7.3115 10.6085 7.302C10.5925 7.292 10.5842 7.293 10.5835 7.305C10.5825 7.323 10.599 7.324 10.593 7.3395C10.5915 7.34262 10.5909 7.34606 10.5912 7.3495C10.5914 7.35294 10.5925 7.35625 10.5945 7.35912C10.5964 7.36198 10.599 7.36431 10.6021 7.36586C10.6051 7.36742 10.6086 7.36816 10.612 7.368ZM10.259 7.585C10.259 7.585 10.2685 7.6005 10.2775 7.61C10.287 7.6195 10.3085 7.6385 10.287 7.651C10.2655 7.6635 10.29 7.6605 10.29 7.6605C10.29 7.6605 10.287 7.7265 10.259 7.717C10.231 7.7075 10.222 7.7515 10.222 7.764C10.222 7.7765 10.332 7.7815 10.315 7.764C10.3055 7.7545 10.3275 7.7325 10.3275 7.7325C10.3275 7.7325 10.402 7.739 10.4175 7.739C10.433 7.739 10.4455 7.736 10.436 7.72C10.4265 7.7045 10.399 7.7075 10.399 7.7075C10.399 7.7075 10.362 7.717 10.328 7.698C10.294 7.679 10.334 7.673 10.3405 7.673C10.347 7.673 10.3745 7.651 10.362 7.6355C10.3495 7.62 10.362 7.5915 10.362 7.604C10.362 7.6165 10.396 7.623 10.4025 7.6135C10.409 7.604 10.4025 7.576 10.387 7.5665C10.3715 7.557 10.415 7.551 10.4025 7.535C10.389 7.519 10.383 7.5 10.383 7.5C10.383 7.5 10.3645 7.525 10.3275 7.5125C10.3275 7.5125 10.3215 7.572 10.303 7.5845H10.259V7.585ZM10.6615 7.561V7.563C10.6615 7.563 10.6635 7.5615 10.6615 7.561ZM9.5445 7.748C9.5445 7.7575 9.566 7.767 9.5785 7.767C9.591 7.767 9.625 7.742 9.625 7.742C9.625 7.742 9.6405 7.698 9.628 7.701C9.6155 7.704 9.591 7.723 9.588 7.704C9.585 7.685 9.548 7.6945 9.548 7.6945L9.4985 7.701L9.4955 7.723L9.5295 7.726C9.529 7.726 9.5445 7.739 9.5445 7.748ZM9.8105 6.7025C9.795 6.7025 9.767 6.6835 9.7735 6.671C9.78 6.6585 9.721 6.646 9.721 6.646C9.721 6.646 9.6685 6.5955 9.687 6.602C9.7055 6.6085 9.6965 6.58 9.6965 6.58C9.6965 6.58 9.6595 6.5865 9.65 6.583C9.6405 6.5795 9.644 6.5515 9.644 6.5515C9.644 6.5515 9.607 6.542 9.607 6.5515C9.607 6.561 9.6195 6.561 9.6255 6.5795C9.6315 6.598 9.6285 6.63 9.6565 6.636C9.6845 6.6425 9.6905 6.6485 9.6935 6.661C9.6965 6.6735 9.7305 6.6765 9.7305 6.6765L9.7555 6.689L9.8295 6.752V6.727C9.829 6.7275 9.826 6.7025 9.8105 6.7025ZM9.4855 6.3005C9.4865 6.3015 9.4885 6.298 9.4895 6.298C9.479 6.293 9.4725 6.2905 9.4855 6.3005ZM9.5815 6.3005L9.56 6.285C9.56 6.285 9.526 6.282 9.526 6.2725C9.526 6.264 9.5035 6.2995 9.49 6.2985C9.505 6.306 9.529 6.3195 9.529 6.3195C9.5535 6.3195 9.569 6.3385 9.569 6.348C9.569 6.3575 9.603 6.3545 9.603 6.3545L9.606 6.3325L9.5815 6.3005ZM10.4665 6.2915C10.4665 6.2915 10.5245 6.36 10.522 6.326C10.516 6.232 10.4725 6.2285 10.457 6.21C10.4415 6.1915 10.375 6.2135 10.3795 6.2385C10.3825 6.254 10.395 6.27 10.4195 6.276L10.4665 6.2915ZM9.272 5.927V5.8925L9.26 5.88L9.2475 5.836L9.2075 5.8235L9.1675 5.839L9.124 5.8675L9.0775 5.874L9.0525 5.902L9.1515 5.9115L9.17 5.943L9.241 5.9495L9.2875 5.9965C9.328 6.009 9.337 5.99 9.3125 5.9685L9.272 5.927ZM9.557 5.773H9.5015C9.4985 5.751 9.449 5.7605 9.446 5.773C9.443 5.7855 9.4245 5.7885 9.4245 5.7885L9.3535 5.795C9.3475 5.814 9.31 5.8265 9.307 5.814C9.3 5.7865 9.2605 5.8485 9.301 5.861C9.341 5.8735 9.3815 5.861 9.3815 5.861L9.391 5.842L9.5455 5.845C9.558 5.8325 9.564 5.8135 9.564 5.8135C9.564 5.8135 9.601 5.801 9.6165 5.807C9.632 5.813 9.6195 5.763 9.604 5.7695C9.588 5.776 9.557 5.773 9.557 5.773ZM8.7215 6.426C8.7245 6.4355 8.7555 6.4385 8.7585 6.429C8.7615 6.4195 8.774 6.4005 8.746 6.4005C8.718 6.4005 8.7245 6.385 8.715 6.3755C8.7055 6.366 8.6415 6.3675 8.644 6.3785C8.647 6.394 8.672 6.413 8.672 6.413C8.672 6.413 8.7185 6.417 8.7215 6.426ZM8.8675 9.257C8.8815 9.2545 8.8905 9.2475 8.902 9.245C8.9135 9.2425 8.9185 9.224 8.923 9.205C8.9275 9.186 8.9185 9.1765 8.9185 9.1765C8.9185 9.1765 8.907 9.1955 8.8885 9.1765C8.87 9.1575 8.8535 9.219 8.8465 9.233C8.847 9.2335 8.854 9.259 8.8675 9.257Z" fill="white"/>
</svg>
