<svg width="18" height="18" viewBox="0 0 18 18" fill="none" xmlns="http://www.w3.org/2000/svg">
<path d="M18 13.5C18 14.0304 17.7893 14.5391 17.4142 14.9142C17.0391 15.2893 16.5304 15.5 16 15.5H2C1.46957 15.5 0.960859 15.2893 0.585786 14.9142C0.210714 14.5391 0 14.0304 0 13.5V4.5C0 3.96957 0.210714 3.46086 0.585786 3.08579C0.960859 2.71071 1.46957 2.5 2 2.5H16C16.5304 2.5 17.0391 2.71071 17.4142 3.08579C17.7893 3.46086 18 3.96957 18 4.5V13.5Z" fill="#DE2910"/>
<path d="M18 13.5C18 14.0304 17.7893 14.5391 17.4142 14.9142C17.0391 15.2893 16.5304 15.5 16 15.5H2C1.46957 15.5 0.960859 15.2893 0.585786 14.9142C0.210714 14.5391 0 14.0304 0 13.5V4.5C0 3.96957 0.210714 3.46086 0.585786 3.08579C0.960859 2.71071 1.46957 2.5 2 2.5H16C16.5304 2.5 17.0391 2.71071 17.4142 3.08579C17.7893 3.46086 18 3.96957 18 4.5V13.5Z" fill="#DE2910"/>
<path d="M5.568 4.48848L5.936 4.66648L6.2305 4.38348L6.175 4.78848L6.535 4.98148L6.133 5.05348L6.061 5.45548L5.868 5.09548L5.463 5.15098L5.746 4.85648L5.568 4.48848ZM7.9005 5.95898L7.7225 6.32648L8.0055 6.62148L7.601 6.56548L7.408 6.92598L7.336 6.52348L6.9335 6.45148L7.294 6.25848L7.238 5.85398L7.533 6.13698L7.9005 5.95898ZM7.422 7.84848L7.556 8.23448L7.9645 8.24298L7.639 8.48948L7.7575 8.88098L7.422 8.64748L7.0865 8.88098L7.2045 8.48948L6.879 8.24298L7.2875 8.23448L7.422 7.84848ZM5.568 9.48848L5.936 9.66648L6.2305 9.38348L6.175 9.78848L6.535 9.98148L6.133 10.0535L6.061 10.4555L5.868 10.0955L5.463 10.151L5.746 9.85648L5.568 9.48848ZM3.5 5.47548L3.9645 6.81098L5.3775 6.83998L4.251 7.69398L4.6605 9.04698L3.5 8.23948L2.3395 9.04698L2.749 7.69398L1.6225 6.83998L3.0355 6.81098L3.5 5.47548Z" fill="#FFDE02"/>
</svg>
